<svg width="1024" height="1024" viewBox="0 0 1024 1024" fill="none" xmlns="http://www.w3.org/2000/svg">
<rect width="1024" height="1024" fill="#71718D"/>
<path d="M190 689L278.5 735.5V626.5L190 689Z" fill="black" fill-opacity="0.23"/>
<path d="M278 464.598V734.577L510.607 864L746 734.577V464.598L510.607 331L278 464.598Z" fill="black"/>
<path d="M449.414 418.407C411.555 446.281 321.364 457.894 281 460.217C326.931 460.217 395.132 469.973 449.414 510.389C492.839 542.722 509.263 610.268 512.047 640C512.047 591.222 534.317 557.774 574.68 510.389C606.971 472.481 688.348 461.146 725 460.217C692.523 455.572 616.992 440.706 574.68 418.407C532.368 396.109 515.295 351.511 512.047 332C506.944 349.189 487.272 390.534 449.414 418.407Z" fill="#71718D"/>
<path d="M396.195 112C396.195 158.034 361.46 197.092 317 197.092C361.46 197.092 396.195 227.782 396.195 278C396.195 229.176 425.372 197.092 474 197.092C426.761 197.092 396.195 159.429 396.195 112Z" fill="black"/>
<path d="M681.08 209C681.08 247.824 652.097 280.765 615 280.765C652.097 280.765 681.08 306.647 681.08 349C681.08 307.824 705.425 280.765 746 280.765C706.584 280.765 681.08 249 681.08 209Z" fill="black"/>
</svg>
